<svg xmlns="http://www.w3.org/2000/svg" viewBox="0 0 32 32" fill="none">
  <!-- Petals -->
  <ellipse cx="16" cy="9"  rx="3.2" ry="5.5" fill="#B37A68" transform="rotate(0   16 16)"/>
  <ellipse cx="16" cy="9"  rx="3.2" ry="5.5" fill="#C5956E" transform="rotate(45  16 16)"/>
  <ellipse cx="16" cy="9"  rx="3.2" ry="5.5" fill="#B37A68" transform="rotate(90  16 16)"/>
  <ellipse cx="16" cy="9"  rx="3.2" ry="5.5" fill="#C5956E" transform="rotate(135 16 16)"/>
  <ellipse cx="16" cy="9"  rx="3.2" ry="5.5" fill="#B37A68" transform="rotate(180 16 16)"/>
  <ellipse cx="16" cy="9"  rx="3.2" ry="5.5" fill="#C5956E" transform="rotate(225 16 16)"/>
  <ellipse cx="16" cy="9"  rx="3.2" ry="5.5" fill="#B37A68" transform="rotate(270 16 16)"/>
  <ellipse cx="16" cy="9"  rx="3.2" ry="5.5" fill="#C5956E" transform="rotate(315 16 16)"/>
  <!-- Center -->
  <circle cx="16" cy="16" r="4.5" fill="#E8C99A"/>
  <circle cx="16" cy="16" r="2.5" fill="#C5A059"/>
</svg>
